<svg width="186" height="43" viewBox="0 0 186 43" fill="none" xmlns="http://www.w3.org/2000/svg">
<path d="M93.1535 8.16745C92.2337 8.87987 92.2337 10.2029 93.1535 11.1189C93.69 11.6532 93.971 11.7296 94.7375 11.6024C96.526 11.3225 97.1903 9.49052 95.9383 8.26922C95.1719 7.48046 94.0732 7.45502 93.1535 8.16745Z" fill="#5C6164"/>
<path d="M114.615 8.16748C113.21 9.26156 114.155 11.7042 115.995 11.7042C116.48 11.7042 117.016 11.4752 117.4 11.0681C119.265 9.23611 116.684 6.53907 114.615 8.16748Z" fill="#5C6164"/>
<path d="M161.549 8.57457C161.6 8.67634 163.414 11.6278 165.535 15.0882L169.418 21.3982L165.331 27.861L161.243 34.3491H164.411H167.579L170.057 30.2018C171.411 27.9373 172.663 25.9272 172.817 25.7746C173.047 25.5201 173.736 26.487 175.78 29.8965L178.463 34.3491H181.631H184.774L184.39 33.7385C182.576 31.016 176.802 21.5763 176.802 21.3728C176.802 21.2456 178.54 18.3195 180.635 14.8846C182.755 11.4497 184.467 8.57457 184.467 8.52368C184.467 8.44735 183.087 8.39646 181.427 8.39646H178.386L175.755 12.8491C174.145 15.5462 172.995 17.1746 172.868 17.0473C172.74 16.9201 171.514 14.9355 170.159 12.671L167.707 8.52368L164.564 8.44735C162.852 8.4219 161.473 8.47279 161.549 8.57457Z" fill="#5C6164"/>
<path d="M102.888 10.3556C102.786 10.4319 102.709 11.526 102.709 12.7728V15.0118H101.304H99.8984V16.284V17.5562H101.304H102.709V23.7136C102.709 31.8302 102.99 32.797 105.724 34.0438C106.873 34.5526 107.359 34.6544 108.636 34.5272C109.479 34.4509 110.195 34.3491 110.246 34.2982C110.297 34.2473 110.195 33.6367 110.016 32.9497C109.709 31.7538 109.658 31.6775 108.917 31.7538C107.768 31.8556 106.337 31.1941 106.03 30.4053C105.877 30.0237 105.775 27.0722 105.775 23.6373V17.5562H107.819H109.863V16.284V15.0118H107.819H105.775V12.5947V10.1775H104.421C103.654 10.1775 102.964 10.2538 102.888 10.3556Z" fill="#5C6164"/>
<path d="M29.2541 14.4521C28.8453 14.7065 28.3343 15.2154 28.1299 15.597C27.9511 15.9533 27.4401 16.3858 27.0569 16.5639C26.1115 16.9456 24.8341 18.3704 24.6297 19.2864C24.5275 19.6681 24.0931 20.3805 23.6077 20.8639C21.717 22.8485 21.717 25.2402 23.6077 27.2249C24.0931 27.7083 24.5275 28.4207 24.6297 28.8024C24.8341 29.7183 26.2137 31.2704 26.9802 31.4485C27.3379 31.5503 27.7978 31.9574 28.0022 32.3645C28.8964 34.0947 31.1192 34.6036 32.4989 33.3568C33.2654 32.6953 33.342 32.4663 33.4187 30.8124L33.5209 29.0059H32.7288C32.0646 29.0059 31.9368 29.1077 31.9368 29.642C31.9368 30.1509 31.8091 30.2781 31.2981 30.2781C30.7871 30.2781 30.6593 30.1509 30.6593 29.6675C30.6593 29.184 30.506 29.0314 29.9695 28.955C29.4074 28.9041 29.2286 28.726 29.1775 28.1663C29.1008 27.632 28.9475 27.4793 28.4621 27.4793C27.9766 27.4793 27.8489 27.3521 27.8489 26.8432C27.8489 26.3343 27.9766 26.2071 28.4876 26.2071C29.0242 26.2071 29.1264 26.0799 29.1264 25.4438C29.1264 24.8077 29.0242 24.6805 28.4876 24.6805C27.9766 24.6805 27.8489 24.5533 27.8489 24.0444C27.8489 23.5355 27.9766 23.4083 28.4876 23.4083C29.0242 23.4083 29.1264 23.2811 29.1264 22.645C29.1264 22.0089 29.0242 21.8817 28.4876 21.8817C27.9766 21.8817 27.8489 21.7544 27.8489 21.2456C27.8489 20.7367 27.9766 20.6095 28.4621 20.6095C28.9475 20.6095 29.1008 20.4568 29.1775 19.897C29.2286 19.3627 29.4074 19.1846 29.9695 19.1337C30.506 19.0574 30.6593 18.9047 30.6593 18.4213C30.6593 17.9379 30.7871 17.8107 31.2981 17.8107C31.8091 17.8107 31.9368 17.9379 31.9368 18.4468C31.9368 18.9811 32.0646 19.0828 32.7288 19.0828H33.5209L33.4187 17.2763C33.342 15.6225 33.2654 15.3935 32.4989 14.732C31.528 13.8669 30.4038 13.7651 29.2541 14.4521Z" fill="#5C6164"/>
<path d="M35.7183 14.732C34.9518 15.3935 34.8751 15.6225 34.7985 17.2763L34.6963 19.0828H35.4883C36.1526 19.0828 36.2804 18.9811 36.2804 18.4467C36.2804 17.9379 36.4081 17.8107 36.9191 17.8107C37.4301 17.8107 37.5578 17.9379 37.5578 18.4213C37.5578 18.9047 37.7111 19.0574 38.2732 19.1337C38.8098 19.1846 38.9886 19.3627 39.0397 19.897C39.1163 20.4568 39.2696 20.6095 39.7551 20.6095C40.2405 20.6095 40.3683 20.7367 40.3683 21.2456C40.3683 21.7544 40.2405 21.8817 39.7295 21.8817C39.193 21.8817 39.0908 22.0089 39.0908 22.645C39.0908 23.2811 39.193 23.4083 39.7295 23.4083C40.2405 23.4083 40.3683 23.5355 40.3683 24.0444C40.3683 24.5533 40.2405 24.6805 39.7295 24.6805C39.193 24.6805 39.0908 24.8077 39.0908 25.4438C39.0908 26.0799 39.193 26.2071 39.7295 26.2071C40.2405 26.2071 40.3683 26.3343 40.3683 26.8432C40.3683 27.3521 40.2405 27.4793 39.7551 27.4793C39.2696 27.4793 39.1163 27.632 39.0397 28.1663C38.9886 28.726 38.8098 28.9041 38.2732 28.955C37.7111 29.0314 37.5578 29.184 37.5578 29.6675C37.5578 30.1509 37.4301 30.2781 36.9191 30.2781C36.4081 30.2781 36.2804 30.1509 36.2804 29.642C36.2804 29.1077 36.1526 29.0059 35.4883 29.0059H34.6963L34.7985 30.8124C34.8751 32.4663 34.9518 32.6953 35.7183 33.3568C37.0724 34.5527 39.0652 34.1965 40.0106 32.5681C40.2661 32.161 40.7771 31.703 41.1858 31.5249C42.1056 31.1432 43.3831 29.7183 43.5875 28.8024C43.6897 28.4207 44.124 27.7083 44.6095 27.2249C46.5001 25.2402 46.5001 22.8485 44.6095 20.8639C44.124 20.3805 43.6897 19.6681 43.5875 19.2864C43.3831 18.3704 42.0034 16.8183 41.2369 16.6402C40.8793 16.5385 40.4194 16.1314 40.215 15.7243C39.3207 13.9941 37.0979 13.4852 35.7183 14.732Z" fill="#5C6164"/>
<path d="M7.46054 15.19C6.8729 15.3935 5.77428 16.1314 5.00779 16.7929C0.153395 21.2201 1.07318 31.016 6.59186 33.8148C7.99708 34.5272 10.4498 34.8835 12.1105 34.6036C15.1765 34.1201 17.3482 32.2882 18.1402 29.5403L18.3702 28.7515H16.9138C15.4575 28.7769 15.4575 28.7769 14.7677 29.9219C13.7968 31.4994 12.2638 32.1864 10.1432 31.9829C7.0773 31.703 5.13554 29.2858 4.90559 25.4693C4.77785 23.0521 5.16109 21.271 6.13197 19.7698C7.40944 17.887 9.93884 16.9201 12.1616 17.5308C13.2603 17.8107 14.7421 19.0829 15.0998 20.0243C15.3042 20.5332 15.4831 20.6095 16.8372 20.6095H18.3702L18.1402 19.8207C17.5015 17.6326 15.8663 15.9533 13.5669 15.1391C12.1616 14.6556 8.91686 14.6811 7.46054 15.19Z" fill="#5C6164"/>
<path d="M54.7526 15.1899C53.2451 15.6988 51.3289 17.5053 50.5369 19.1337C49.1828 21.9071 48.9784 25.9272 50.077 28.8533C50.7924 30.6852 52.3254 32.3899 54.1138 33.255C55.3402 33.8657 55.8767 33.9675 57.6141 33.9675C60.0669 33.942 61.4721 33.3314 62.5451 31.8047C62.9284 31.245 63.3116 30.8124 63.4394 30.787C63.5416 30.787 63.6182 31.9065 63.6182 33.2805C63.6182 36.4101 63.0817 37.7077 61.3188 38.6746C60.3479 39.2089 59.8369 39.3107 58.1251 39.3107C55.8256 39.3107 54.4715 38.7763 53.3218 37.4024C52.9641 36.9953 52.6064 36.6391 52.5042 36.6391C52.1465 36.6391 50.3325 38.013 50.3325 38.2929C50.3325 38.8018 52.5553 40.6846 53.8583 41.2953C54.8803 41.7533 55.519 41.8296 58.1251 41.8296C60.91 41.8296 61.3188 41.7787 62.5962 41.1681C64.2314 40.4047 65.4322 39.2343 66.0965 37.784C66.5053 36.8681 66.5564 35.6722 66.6331 25.8763L66.7353 15.0118H65.1767H63.6438L63.5671 16.5893L63.4905 18.1923L62.724 17.1237C61.5998 15.5207 59.9136 14.7574 57.6397 14.7828C56.6432 14.7828 55.3402 14.9609 54.7526 15.1899ZM59.607 17.5817C60.8844 17.9379 62.3152 19.2101 62.9284 20.584C63.5671 22.0089 63.7971 25.2148 63.3627 26.9195C62.6984 29.6929 60.7311 31.2959 57.9973 31.2959C54.4971 31.2959 52.3765 28.7515 52.3765 24.6041C52.3765 19.4899 55.519 16.4367 59.607 17.5817Z" fill="#5C6164"/>
<path d="M77.7471 15.3935C77.0062 15.7752 76.1886 16.4367 75.8564 16.9201C75.5243 17.4036 75.1666 17.8107 75.0644 17.8107C74.9366 17.8107 74.86 17.1746 74.86 16.4112V15.0118H73.4548H72.0496V24.6805V34.3491H73.5825H75.1155V27.6828C75.1155 21.4491 75.141 20.9657 75.652 19.9225C76.5463 18.0651 78.6158 17.0728 80.8897 17.429C82.3971 17.6325 83.8534 18.9556 84.2877 20.4823C84.4666 21.0929 84.5688 24.0189 84.5688 27.9118V34.3491H85.9996H87.4048L87.3281 26.6397C87.2515 19.261 87.2259 18.9047 86.6894 17.887C85.9996 16.5894 84.5943 15.4444 83.3169 15.0373C81.5795 14.5284 79.2034 14.6811 77.7471 15.3935Z" fill="#5C6164"/>
<path d="M146.731 15.2917C143.384 16.5893 141.289 20.3041 141.289 24.8077C141.314 30.2781 144.099 33.9166 148.749 34.5781C152.837 35.1379 156.772 33.3822 157.87 30.4816C158.1 29.871 158.049 29.8201 156.669 29.4385C155.775 29.184 155.187 29.1331 155.136 29.2858C155.085 29.413 154.728 29.8964 154.37 30.329C153.067 31.8556 150.691 32.4408 148.34 31.7793C146.296 31.2195 144.355 28.5988 144.355 26.4106V25.6982H151.406H158.483L158.356 23.4592C158.1 19.5917 156.644 16.971 153.961 15.597C152.147 14.6556 148.698 14.503 146.731 15.2917ZM152.505 17.9124C154.063 18.7266 155.315 20.6858 155.341 22.3142V23.1538H149.848H144.355V22.4414C144.38 20.7112 146.22 18.345 148.085 17.658C149.286 17.2254 151.381 17.3527 152.505 17.9124Z" fill="#5C6164"/>
<path d="M93 24.6805V34.3491H94.533H96.0659V24.6805V15.0118H94.533H93V24.6805Z" fill="#5C6164"/>
<path d="M114.462 24.6805V34.3491H115.995H117.528V24.6805V15.0118H115.995H114.462V24.6805Z" fill="#5C6164"/>
<path d="M121.615 15.1645C121.615 15.2917 123.2 19.6426 125.141 24.8586L128.642 34.3491H130.175H131.708L135.233 24.8586C137.15 19.6681 138.734 15.2917 138.734 15.1899C138.734 15.0882 138.018 15.0118 137.15 15.0627L135.591 15.1391L132.908 22.8485C131.426 27.0722 130.2 30.5071 130.149 30.4562C130.098 30.4053 128.872 26.945 127.415 22.7468L124.758 15.1391L123.174 15.0627C122.331 15.0118 121.615 15.0627 121.615 15.1645Z" fill="#5C6164"/>
<path d="M30.6594 24.0444V27.4793H34.1086H37.5578V24.0444V20.6095H34.1086H30.6594V24.0444ZM36.1526 24.0444V26.0799H34.1086H32.0646L31.988 24.3243C31.8858 21.8053 31.8602 21.8562 34.1597 21.9326L36.1526 22.0089V24.0444Z" fill="#5C6164"/>
<path d="M33.47 24.0444C33.47 24.5533 33.5977 24.6805 34.1087 24.6805C34.6197 24.6805 34.7474 24.5533 34.7474 24.0444C34.7474 23.5355 34.6197 23.4083 34.1087 23.4083C33.5977 23.4083 33.47 23.5355 33.47 24.0444Z" fill="#5C6164"/>
</svg>
